# Blender v3.2.2 OBJ File: 'Dungeon Voxel Assets.blend'
# www.blender.org
mtllib Lamp_Wall.mtl
o Lamp_Wall_Lamp_Wall.001
v -0.250000 -0.131579 0.073684
v -0.150000 -0.231579 -0.026316
v -0.050000 -0.331579 -0.026316
v -0.050000 -0.131579 0.173684
v -0.050000 -0.131579 0.073684
v -0.050000 -0.131579 0.273684
v -0.050000 0.068421 0.073684
v -0.050000 0.168421 0.173684
v -0.050000 0.168421 0.073684
v -0.050000 0.168421 -0.026316
v -0.050000 0.368421 -0.426316
v 0.050000 -0.231579 -0.026316
v 0.050000 -0.231579 0.073684
v 0.150000 0.068421 0.073684
v 0.050000 -0.331579 0.073684
v 0.050000 -0.231579 -0.126316
v 0.050000 -0.131579 0.273684
v 0.050000 0.068421 0.273684
v 0.050000 0.068421 0.073684
v 0.050000 0.068421 -0.026316
v 0.050000 -0.131579 -0.226316
v 0.050000 0.068421 -0.126316
v 0.050000 0.168421 0.173684
v 0.050000 0.168421 0.073684
v 0.150000 0.068421 -0.026316
v 0.250000 -0.131579 -0.026316
v 0.250000 0.068421 -0.026316
v -0.050000 0.068421 0.273684
v 0.050000 -0.231579 0.173684
v -0.050000 0.068421 0.173684
v -0.150000 0.068421 0.073684
v -0.150000 -0.231579 0.073684
v -0.150000 0.168421 0.073684
v -0.050000 0.468421 0.073684
v 0.050000 0.468421 0.073684
v 0.150000 -0.131579 0.073684
v 0.150000 0.168421 0.073684
v 0.250000 0.068421 0.073684
v 0.050000 -0.131579 -0.026316
v 0.050000 0.068421 0.173684
v -0.250000 -0.131579 -0.026316
v -0.250000 0.068421 -0.026316
v -0.150000 0.068421 -0.026316
v -0.150000 0.168421 -0.026316
v 0.050000 0.368421 -0.026316
v -0.050000 -0.231579 -0.126316
v -0.050000 -0.131579 -0.126316
v -0.050000 0.068421 -0.126316
v -0.050000 0.168421 -0.126316
v 0.050000 0.168421 -0.126316
v -0.050000 0.068421 -0.226316
v -0.050000 0.468421 -0.426316
v 0.050000 0.368421 -0.426316
v -0.050000 -0.331579 0.073684
v 0.050000 -0.331579 -0.026316
v -0.050000 -0.231579 0.073684
v -0.050000 -0.231579 0.173684
v -0.050000 -0.231579 -0.026316
v 0.150000 -0.231579 0.073684
v 0.150000 -0.231579 -0.026316
v 0.050000 -0.131579 0.073684
v 0.250000 -0.131579 0.073684
v -0.050000 -0.131579 -0.226316
v -0.050000 0.068421 -0.026316
v -0.050000 0.368421 -0.026316
v 0.050000 -0.131579 0.173684
v -0.150000 -0.131579 0.073684
v -0.150000 -0.131579 -0.026316
v -0.050000 -0.131579 -0.026316
v 0.150000 -0.131579 -0.026316
v 0.050000 -0.131579 -0.126316
v -0.250000 0.068421 0.073684
v 0.050000 0.068421 -0.226316
v 0.050000 0.168421 -0.026316
v 0.150000 0.168421 -0.026316
v 0.050000 0.468421 -0.426316
vt 0.692610 0.000231
vt 0.769284 0.000231
vt 0.769284 0.153580
vt 0.692610 0.153580
vt 0.848267 0.384065
vt 0.848267 0.460740
vt 0.771593 0.460740
vt 0.771593 0.384065
vt 0.539722 0.537876
vt 0.539722 0.691225
vt 0.463048 0.691225
vt 0.463048 0.537876
vt 0.540184 0.384065
vt 0.616859 0.384065
vt 0.616859 0.537414
vt 0.540184 0.537414
vt 0.385912 0.460739
vt 0.462587 0.460739
vt 0.462587 0.537414
vt 0.385912 0.537414
vt 0.694456 0.537876
vt 0.771131 0.537876
vt 0.771131 0.691225
vt 0.694456 0.691225
vt 0.539722 0.768361
vt 0.463048 0.768361
vt 0.463048 0.691686
vt 0.539722 0.691686
vt 0.925402 0.615012
vt 0.925402 0.691686
vt 0.848728 0.691686
vt 0.848728 0.615012
vt 0.154503 0.460740
vt 0.231178 0.460740
vt 0.231178 0.614089
vt 0.154503 0.614089
vt 0.615012 0.000231
vt 0.615012 0.306929
vt 0.538337 0.306929
vt 0.538337 0.000231
vt 0.539723 0.537414
vt 0.463048 0.537414
vt 0.463048 0.384065
vt 0.539723 0.384065
vt 0.771130 0.768361
vt 0.694456 0.768361
vt 0.694456 0.691686
vt 0.771130 0.691686
vt 0.231640 0.845497
vt 0.308314 0.845497
vt 0.308314 0.922171
vt 0.231640 0.922171
vt 0.076905 0.768361
vt 0.076905 0.845036
vt 0.000231 0.845036
vt 0.000231 0.768361
vt 0.846881 0.154503
vt 0.923556 0.154503
vt 0.923556 0.231178
vt 0.846881 0.231178
vt 0.771592 0.692148
vt 0.848266 0.692148
vt 0.848266 0.768823
vt 0.771592 0.768823
vt 0.694457 0.384065
vt 0.771132 0.384065
vt 0.771132 0.460740
vt 0.694457 0.460740
vt 0.385450 0.845498
vt 0.308776 0.845498
vt 0.308776 0.768823
vt 0.385450 0.768823
vt 0.692148 0.000231
vt 0.692148 0.153580
vt 0.615474 0.153580
vt 0.615474 0.000231
vt 0.693994 0.537876
vt 0.693994 0.691225
vt 0.617320 0.691225
vt 0.617320 0.537876
vt 0.694456 0.845959
vt 0.771130 0.845959
vt 0.771130 0.922633
vt 0.694456 0.922633
vt 0.076905 0.614550
vt 0.076905 0.767900
vt 0.000231 0.767900
vt 0.000231 0.614550
vt 0.307390 0.000231
vt 0.307390 0.306929
vt 0.460740 0.306929
vt 0.460740 0.383604
vt 0.230716 0.383604
vt 0.230716 0.000231
vt 0.154041 0.845497
vt 0.154041 0.922172
vt 0.077367 0.922172
vt 0.077367 0.845497
vt 0.385912 0.384065
vt 0.462587 0.384065
vt 0.231178 0.614550
vt 0.231178 0.767899
vt 0.154503 0.767899
vt 0.154503 0.614550
vt 0.308776 0.845959
vt 0.385450 0.845959
vt 0.385450 0.922633
vt 0.308776 0.922633
vt 0.230255 0.383604
vt 0.000231 0.383604
vt 0.000231 0.306929
vt 0.153580 0.306929
vt 0.153580 0.000231
vt 0.230255 0.000231
vt 0.308776 0.384065
vt 0.385451 0.384065
vt 0.385451 0.537414
vt 0.308776 0.537414
vt 0.771592 0.846420
vt 0.848266 0.846420
vt 0.848266 0.923094
vt 0.771592 0.923094
vt 0.000231 0.845497
vt 0.076905 0.845497
vt 0.076905 0.922172
vt 0.000231 0.922172
vt 0.848266 0.537876
vt 0.848266 0.614551
vt 0.771592 0.614551
vt 0.771592 0.537876
vt 0.385450 0.537876
vt 0.385450 0.691225
vt 0.308776 0.691225
vt 0.308776 0.537876
vt 0.385912 0.845959
vt 0.462586 0.845959
vt 0.462586 0.922633
vt 0.385912 0.922633
vt 0.846881 0.308314
vt 0.846881 0.231640
vt 0.923556 0.231640
vt 0.923556 0.308314
vt 0.848266 0.615012
vt 0.848266 0.691687
vt 0.771592 0.691687
vt 0.771592 0.615012
vt 0.925402 0.537876
vt 0.925402 0.614550
vt 0.848728 0.614550
vt 0.848728 0.537876
vt 0.077367 0.768361
vt 0.154041 0.768361
vt 0.154041 0.845036
vt 0.077367 0.845036
vt 0.154503 0.922633
vt 0.231177 0.922633
vt 0.231177 0.999308
vt 0.154503 0.999308
vt 0.231639 0.691686
vt 0.308314 0.691686
vt 0.308314 0.768361
vt 0.231639 0.768361
vt 0.462586 0.768823
vt 0.462586 0.845498
vt 0.385912 0.845498
vt 0.385912 0.768823
vt 0.231178 0.845036
vt 0.154503 0.845036
vt 0.154503 0.768361
vt 0.231178 0.768361
vt 0.462586 0.537876
vt 0.462586 0.691225
vt 0.385912 0.691225
vt 0.385912 0.537876
vt 0.462586 0.691686
vt 0.462586 0.768361
vt 0.385912 0.768361
vt 0.385912 0.691686
vt 0.385450 0.691686
vt 0.385450 0.768361
vt 0.308776 0.768361
vt 0.308776 0.691686
vt 0.077367 0.384065
vt 0.154042 0.384065
vt 0.154042 0.537414
vt 0.077367 0.537414
vt 0.231178 0.384065
vt 0.154503 0.384065
vt 0.925403 0.384065
vt 0.925403 0.460740
vt 0.848729 0.460740
vt 0.848729 0.384065
vt 0.848727 0.769284
vt 0.925402 0.769284
vt 0.925402 0.845958
vt 0.848727 0.845958
vt 0.694456 0.768823
vt 0.771130 0.768823
vt 0.771130 0.845498
vt 0.694456 0.845498
vt 0.231639 0.537876
vt 0.308314 0.537876
vt 0.308314 0.691225
vt 0.231639 0.691225
vt 0.923556 0.077367
vt 0.923556 0.154042
vt 0.846881 0.154042
vt 0.846881 0.077367
vt 0.692148 0.154041
vt 0.692148 0.307391
vt 0.615474 0.307391
vt 0.615474 0.154041
vt 0.461201 0.383604
vt 0.461201 0.000231
vt 0.537876 0.000231
vt 0.537876 0.383604
vt 0.846420 0.154042
vt 0.769746 0.154042
vt 0.769746 0.077367
vt 0.846420 0.077367
vt 0.154042 0.614089
vt 0.077367 0.614089
vt 0.771132 0.537414
vt 0.694457 0.537414
vt 0.540184 0.922633
vt 0.540184 0.845959
vt 0.616858 0.845959
vt 0.616858 0.922633
vt 0.308776 0.923095
vt 0.385450 0.923095
vt 0.385450 0.999769
vt 0.308776 0.999769
vt 0.463048 0.922633
vt 0.463048 0.845959
vt 0.539722 0.845959
vt 0.539722 0.922633
vt 0.154503 0.845497
vt 0.231177 0.845497
vt 0.231177 0.922172
vt 0.154503 0.922172
vt 0.231640 0.999307
vt 0.231640 0.922633
vt 0.308314 0.922633
vt 0.308314 0.999307
vt 0.692610 0.154041
vt 0.769284 0.154041
vt 0.769284 0.307391
vt 0.692610 0.307391
vt 0.616858 0.537876
vt 0.616858 0.691225
vt 0.540184 0.691225
vt 0.540184 0.537876
vt 0.077367 0.922633
vt 0.154041 0.922633
vt 0.154041 0.999308
vt 0.077367 0.999308
vt 0.617320 0.845959
vt 0.693995 0.845959
vt 0.693995 0.922633
vt 0.617320 0.922633
vt 0.693995 0.384065
vt 0.693995 0.537414
vt 0.617321 0.537414
vt 0.617321 0.384065
vt 0.000231 0.384065
vt 0.076906 0.384065
vt 0.076906 0.614089
vt 0.000231 0.614089
vt 0.846881 0.000231
vt 0.923556 0.000231
vt 0.923556 0.076905
vt 0.846881 0.076905
vt 0.769746 0.000231
vt 0.846420 0.000231
vt 0.846420 0.076906
vt 0.769746 0.076906
vt 0.616858 0.768361
vt 0.540184 0.768361
vt 0.540184 0.691686
vt 0.616858 0.691686
vt 0.617320 0.691686
vt 0.693994 0.691686
vt 0.693994 0.768361
vt 0.617320 0.768361
vt 0.616858 0.768823
vt 0.616858 0.845498
vt 0.540184 0.845498
vt 0.540184 0.768823
vt 0.231639 0.384065
vt 0.308314 0.384065
vt 0.308314 0.537414
vt 0.231639 0.537414
vt 0.385912 0.923095
vt 0.462586 0.923095
vt 0.462586 0.999769
vt 0.385912 0.999769
vt 0.846420 0.154503
vt 0.846420 0.231178
vt 0.769746 0.231178
vt 0.769746 0.154503
vt 0.925402 0.846420
vt 0.925402 0.923095
vt 0.848728 0.923095
vt 0.848728 0.846420
vt 0.771592 0.769284
vt 0.848266 0.769284
vt 0.848266 0.845958
vt 0.771592 0.845958
vt 0.077367 0.614550
vt 0.154042 0.614550
vt 0.154042 0.767900
vt 0.077367 0.767900
vt 0.000231 0.999308
vt 0.000231 0.922633
vt 0.076905 0.922633
vt 0.076905 0.999308
vt 0.463048 0.923095
vt 0.539722 0.923095
vt 0.539722 0.999769
vt 0.463048 0.999769
vt 0.848728 0.768822
vt 0.848728 0.692148
vt 0.925402 0.692148
vt 0.925402 0.768822
vt 0.539722 0.768823
vt 0.539722 0.845498
vt 0.463048 0.845498
vt 0.463048 0.768823
vt 0.769746 0.231639
vt 0.846420 0.231639
vt 0.846420 0.308314
vt 0.769746 0.308314
vt 0.617320 0.768823
vt 0.693994 0.768823
vt 0.693994 0.845498
vt 0.617320 0.845498
vt 0.308314 0.845035
vt 0.231639 0.845035
vn 0.0000 -0.0000 1.0000
vn -1.0000 -0.0000 0.0000
vn 1.0000 0.0000 0.0000
vn 0.0000 0.0000 -1.0000
vn 0.0000 -1.0000 0.0000
vn 0.0000 1.0000 0.0000
usemtl Lamp_Wall
s off
f 31/1/1 72/2/1 1/3/1 67/4/1
f 5/5/2 56/6/2 57/7/2 4/8/2
f 21/9/3 73/10/3 22/11/3 71/12/3
f 65/13/4 45/14/4 74/15/4 10/16/4
f 66/17/1 4/18/1 57/19/1 29/20/1
f 38/21/1 14/22/1 36/23/1 62/24/1
f 13/25/5 29/26/5 57/27/5 56/28/5
f 68/29/5 67/30/5 1/31/5 41/32/5
f 64/33/4 20/34/4 39/35/4 69/36/4
f 53/37/5 45/38/5 65/39/5 11/40/5
f 5/41/1 61/42/1 19/43/1 7/44/1
f 21/45/5 71/46/5 47/47/5 63/48/5
f 58/49/3 69/50/3 5/51/3 56/52/3
f 52/53/4 76/54/4 53/55/4 11/56/4
f 44/57/2 43/58/2 31/59/2 33/60/2
f 68/61/2 2/62/2 32/63/2 67/64/2
f 44/65/4 10/66/4 64/67/4 43/68/4
f 39/69/5 61/70/5 5/71/5 69/72/5
f 42/73/2 41/74/2 1/75/2 72/76/2
f 26/77/3 27/78/3 38/79/3 62/80/3
f 68/81/4 69/82/4 58/83/4 2/84/4
f 64/85/2 69/86/2 5/87/2 7/88/2
f 11/89/2 65/90/2 10/91/2 9/92/2 34/93/2 52/94/2
f 16/95/3 71/96/3 39/97/3 12/98/3
f 66/17/6 61/99/6 5/100/6 4/18/6
f 66/101/3 40/102/3 18/103/3 17/104/3
f 55/105/3 12/106/3 13/107/3 15/108/3
f 35/109/3 24/110/3 74/111/3 45/112/3 53/113/3 76/114/3
f 18/115/1 28/116/1 6/117/1 17/118/1
f 25/119/3 75/120/3 37/121/3 14/122/3
f 60/123/3 70/124/3 36/125/3 59/126/3
f 49/127/4 50/128/4 22/129/4 48/130/4
f 68/131/3 43/132/3 31/133/3 67/134/3
f 58/135/2 3/136/2 54/137/2 56/138/2
f 9/139/6 10/140/6 44/141/6 33/142/6
f 13/143/3 61/144/3 66/145/3 29/146/3
f 60/147/5 59/148/5 13/149/5 12/150/5
f 13/151/6 12/152/6 58/153/6 56/154/6
f 49/155/2 48/156/2 64/157/2 10/158/2
f 74/159/4 75/160/4 25/161/4 20/162/4
f 39/163/1 69/164/1 58/165/1 12/166/1
f 55/167/5 15/168/5 54/169/5 3/170/5
f 39/171/3 20/172/3 19/173/3 61/174/3
f 5/175/4 61/176/4 13/177/4 56/178/4
f 47/179/4 71/180/4 16/181/4 46/182/4
f 30/183/4 40/184/4 66/185/4 4/186/4
f 22/187/5 20/34/5 64/33/5 48/188/5
f 47/189/2 46/190/2 58/191/2 69/192/2
f 9/193/2 7/194/2 30/195/2 8/196/2
f 18/197/6 40/198/6 30/199/6 28/200/6
f 51/201/4 73/202/4 21/203/4 63/204/4
f 58/205/5 56/206/5 32/207/5 2/208/5
f 51/209/2 63/210/2 47/211/2 48/212/2
f 35/213/6 76/214/6 52/215/6 34/216/6
f 16/217/5 12/218/5 58/219/5 46/220/5
f 66/185/5 17/221/5 6/222/5 4/186/5
f 64/67/5 7/223/5 31/224/5 43/68/5
f 38/225/6 27/226/6 25/227/6 14/228/6
f 9/229/1 33/230/1 31/231/1 7/232/1
f 5/233/6 69/234/6 68/235/6 67/236/6
f 39/237/4 70/238/4 60/239/4 12/240/4
f 31/241/6 43/242/6 42/243/6 72/244/6
f 25/245/4 27/246/4 26/247/4 70/248/4
f 30/249/2 4/250/2 6/251/2 28/252/2
f 19/253/3 24/254/3 23/255/3 40/256/3
f 5/257/1 67/258/1 32/259/1 56/260/1
f 25/261/2 70/262/2 36/263/2 14/264/2
f 35/265/1 34/266/1 9/267/1 24/268/1
f 36/269/1 61/270/1 13/271/1 59/272/1
f 74/273/6 50/274/6 49/275/6 10/276/6
f 19/277/5 40/278/5 30/279/5 7/280/5
f 22/281/6 73/282/6 51/283/6 48/284/6
f 13/285/1 56/286/1 54/287/1 15/288/1
f 22/289/1 48/290/1 47/291/1 71/292/1
f 22/293/3 50/294/3 74/295/3 20/296/3
f 23/297/1 8/298/1 30/299/1 40/300/1
f 26/301/5 62/302/5 36/303/5 70/304/5
f 39/305/2 12/306/2 13/307/2 61/308/2
f 42/309/4 43/310/4 68/311/4 41/312/4
f 36/313/6 70/314/6 39/315/6 61/316/6
f 37/317/1 24/318/1 19/319/1 14/320/1
f 37/321/6 75/322/6 74/323/6 24/324/6
f 58/325/4 12/326/4 55/327/4 3/328/4
f 39/329/6 71/330/6 47/331/6 69/332/6
f 23/333/6 24/334/6 9/335/6 8/336/6
f 25/161/5 14/337/5 19/338/5 20/162/5
