# Blender v3.2.2 OBJ File: 'Dungeon Voxel Assets.blend'
# www.blender.org
mtllib Lamp_Ground_Small.mtl
o Lamp_Ground_Small_Lamp_Ground_Small.001
v -0.350000 0.409375 0.050000
v -0.250000 -0.490625 -0.050000
v -0.250000 -0.490625 0.050000
v -0.250000 -0.390625 -0.050000
v -0.250000 0.209375 -0.050000
v -0.250000 0.209375 0.050000
v -0.150000 -0.290625 -0.050000
v -0.150000 0.209375 0.050000
v -0.150000 0.109375 0.050000
v -0.050000 -0.390625 0.250000
v -0.050000 -0.490625 0.150000
v -0.050000 -0.390625 0.050000
v -0.050000 -0.390625 -0.050000
v -0.050000 0.209375 0.050000
v -0.050000 0.209375 -0.050000
v -0.050000 0.309375 0.150000
v -0.050000 0.309375 -0.150000
v -0.050000 0.209375 -0.250000
v -0.050000 0.409375 0.050000
v -0.050000 0.409375 -0.050000
v -0.050000 0.409375 -0.250000
v 0.150000 -0.390625 0.050000
v 0.150000 -0.490625 0.050000
v 0.150000 0.309375 -0.050000
v -0.250000 0.309375 -0.050000
v -0.150000 -0.490625 0.050000
v -0.150000 -0.490625 -0.050000
v 0.050000 -0.490625 0.150000
v 0.050000 -0.390625 -0.250000
v 0.050000 -0.290625 -0.150000
v 0.050000 0.109375 -0.050000
v 0.050000 0.309375 -0.150000
v 0.050000 0.409375 0.350000
v 0.050000 0.409375 -0.050000
v 0.150000 0.209375 0.050000
v 0.250000 -0.490625 0.050000
v 0.250000 -0.490625 -0.050000
v 0.250000 -0.390625 -0.050000
v 0.250000 0.209375 0.050000
v 0.250000 0.209375 -0.050000
v 0.250000 0.309375 -0.050000
v 0.350000 0.309375 0.050000
v 0.050000 0.309375 0.350000
v 0.050000 -0.490625 0.250000
v 0.050000 0.209375 0.250000
v 0.050000 -0.290625 0.150000
v 0.050000 0.109375 0.150000
v -0.250000 0.309375 0.050000
v -0.350000 0.309375 0.050000
v -0.150000 -0.390625 0.050000
v -0.150000 0.309375 0.050000
v -0.150000 -0.290625 0.050000
v -0.050000 0.109375 0.050000
v -0.050000 -0.490625 0.050000
v 0.050000 0.109375 0.050000
v 0.050000 0.409375 0.050000
v 0.150000 -0.290625 0.050000
v 0.150000 0.109375 0.050000
v 0.150000 0.309375 0.050000
v -0.050000 -0.390625 -0.150000
v 0.050000 0.409375 -0.250000
v -0.050000 0.309375 0.250000
v 0.050000 0.409375 0.250000
v 0.050000 0.209375 0.150000
v 0.050000 0.309375 0.150000
v -0.350000 0.309375 -0.050000
v -0.250000 0.409375 -0.050000
v -0.050000 0.109375 -0.050000
v -0.050000 -0.490625 -0.050000
v 0.050000 -0.490625 -0.050000
v 0.050000 -0.290625 -0.050000
v 0.150000 -0.290625 -0.050000
v 0.150000 0.109375 -0.050000
v 0.150000 -0.490625 -0.050000
v 0.250000 0.409375 -0.050000
v 0.350000 0.409375 -0.050000
v -0.050000 -0.290625 -0.150000
v 0.050000 0.109375 -0.150000
v -0.050000 0.309375 -0.250000
v 0.050000 0.209375 -0.250000
v 0.050000 0.309375 -0.250000
v -0.050000 -0.490625 0.250000
v 0.050000 -0.490625 0.050000
v -0.050000 -0.490625 -0.250000
v 0.050000 -0.490625 -0.150000
v -0.050000 -0.490625 -0.150000
v 0.050000 -0.490625 -0.250000
v 0.050000 -0.390625 0.050000
v -0.150000 -0.390625 -0.050000
v 0.050000 -0.390625 -0.050000
v -0.050000 0.109375 0.150000
v -0.150000 0.109375 -0.050000
v -0.050000 0.109375 -0.150000
v -0.050000 0.209375 0.150000
v -0.050000 0.209375 0.250000
v -0.150000 0.209375 -0.050000
v 0.150000 0.209375 -0.050000
v -0.050000 0.209375 -0.150000
v -0.050000 0.309375 0.350000
v 0.250000 0.309375 0.050000
v 0.350000 0.309375 -0.050000
v -0.050000 0.309375 -0.350000
v 0.050000 0.309375 -0.350000
v 0.050000 -0.390625 0.250000
v -0.050000 -0.390625 0.150000
v 0.050000 -0.390625 0.150000
v -0.250000 -0.390625 0.050000
v 0.250000 -0.390625 0.050000
v 0.150000 -0.390625 -0.050000
v 0.050000 -0.390625 -0.150000
v -0.050000 -0.390625 -0.250000
v -0.050000 -0.290625 0.150000
v -0.050000 -0.290625 0.050000
v 0.050000 -0.290625 0.050000
v -0.050000 -0.290625 -0.050000
v 0.050000 0.209375 0.050000
v 0.050000 0.209375 -0.050000
v 0.050000 0.209375 -0.150000
v 0.050000 0.309375 0.250000
v -0.150000 0.309375 -0.050000
v -0.050000 0.409375 0.350000
v -0.050000 0.409375 0.250000
v -0.250000 0.409375 0.050000
v -0.350000 0.409375 -0.050000
v 0.250000 0.409375 0.050000
v 0.350000 0.409375 0.050000
v -0.050000 0.409375 -0.350000
v 0.050000 0.409375 -0.350000
vt 0.308363 0.384176
vt 0.384777 0.384176
vt 0.384777 0.460591
vt 0.308363 0.460591
vt 0.231347 0.691037
vt 0.231347 0.614623
vt 0.307762 0.614623
vt 0.307762 0.691037
vt 0.077316 0.000300
vt 0.153730 0.000300
vt 0.153730 0.305958
vt 0.077316 0.305958
vt 0.000300 0.459388
vt 0.000300 0.306559
vt 0.076715 0.306559
vt 0.076715 0.459388
vt 0.000300 0.845067
vt 0.076715 0.845067
vt 0.076715 0.921481
vt 0.000300 0.921481
vt 0.692840 0.615223
vt 0.692840 0.691638
vt 0.616425 0.691638
vt 0.616425 0.615223
vt 0.231347 0.537006
vt 0.231347 0.460591
vt 0.307762 0.460591
vt 0.307762 0.537006
vt 0.538808 0.307160
vt 0.538808 0.383575
vt 0.462393 0.383575
vt 0.462393 0.307160
vt 0.693440 0.154332
vt 0.769855 0.154332
vt 0.769855 0.230747
vt 0.693440 0.230747
vt 0.308362 0.769254
vt 0.384777 0.769254
vt 0.384777 0.845669
vt 0.308362 0.845669
vt 0.154332 0.845067
vt 0.230746 0.845067
vt 0.230746 0.921481
vt 0.154332 0.921481
vt 0.539409 0.692239
vt 0.615824 0.692239
vt 0.615824 0.768653
vt 0.539409 0.768653
vt 0.693440 0.692239
vt 0.769855 0.692239
vt 0.769855 0.768653
vt 0.693440 0.768653
vt 0.076715 0.922082
vt 0.076715 0.998497
vt 0.000301 0.998497
vt 0.000301 0.922082
vt 0.692839 0.000301
vt 0.692839 0.076716
vt 0.616425 0.076716
vt 0.616425 0.000301
vt 0.539409 0.153731
vt 0.539409 0.077317
vt 0.615824 0.077317
vt 0.615824 0.153731
vt 0.847471 0.461191
vt 0.923886 0.461191
vt 0.923886 0.537606
vt 0.847471 0.537606
vt 0.461792 0.615223
vt 0.461792 0.691638
vt 0.385378 0.691638
vt 0.385378 0.615223
vt 0.847471 0.000301
vt 0.923886 0.000301
vt 0.923886 0.076716
vt 0.847471 0.076716
vt 0.461792 0.538208
vt 0.461792 0.614622
vt 0.385378 0.614622
vt 0.385378 0.538208
vt 0.230746 0.922082
vt 0.230746 0.998497
vt 0.154332 0.998497
vt 0.154332 0.922082
vt 0.923886 0.154332
vt 0.923886 0.230747
vt 0.847472 0.230747
vt 0.847472 0.154332
vt 0.539409 0.846270
vt 0.615824 0.846270
vt 0.615824 0.922684
vt 0.539409 0.922684
vt 0.769855 0.077317
vt 0.769855 0.153731
vt 0.693440 0.153731
vt 0.693440 0.077317
vt 0.769855 0.461191
vt 0.769855 0.537606
vt 0.693440 0.537606
vt 0.693440 0.461191
vt 0.461792 0.923285
vt 0.461792 0.999700
vt 0.385378 0.999700
vt 0.385378 0.923285
vt 0.923886 0.538208
vt 0.923886 0.614622
vt 0.847472 0.614622
vt 0.847472 0.538208
vt 0.462394 0.846269
vt 0.538808 0.846270
vt 0.538808 0.922684
vt 0.462394 0.922684
vt 0.693440 0.538208
vt 0.769855 0.538208
vt 0.769855 0.614622
vt 0.693440 0.614622
vt 0.308363 0.846270
vt 0.384777 0.846270
vt 0.384777 0.922684
vt 0.308363 0.922684
vt 0.770456 0.461191
vt 0.846870 0.461192
vt 0.846870 0.537606
vt 0.770456 0.537606
vt 0.770456 0.692239
vt 0.846871 0.692239
vt 0.846871 0.768653
vt 0.770456 0.768653
vt 0.077316 0.767450
vt 0.077316 0.691036
vt 0.153730 0.691036
vt 0.153730 0.767450
vt 0.307762 0.000300
vt 0.307762 0.305958
vt 0.231347 0.305958
vt 0.231347 0.000300
vt 0.153731 0.306559
vt 0.153731 0.459388
vt 0.077316 0.459388
vt 0.077316 0.306559
vt 0.077316 0.845067
vt 0.153731 0.845067
vt 0.153731 0.921481
vt 0.077316 0.921481
vt 0.462394 0.691638
vt 0.462394 0.615223
vt 0.538808 0.615223
vt 0.538808 0.691638
vt 0.308362 0.615223
vt 0.384777 0.615223
vt 0.384777 0.691638
vt 0.308362 0.691638
vt 0.384777 0.923285
vt 0.384777 0.999700
vt 0.308363 0.999700
vt 0.308363 0.923285
vt 0.923886 0.846270
vt 0.923886 0.922684
vt 0.847472 0.922684
vt 0.847472 0.846270
vt 0.539409 0.614622
vt 0.539409 0.538208
vt 0.615824 0.538208
vt 0.615824 0.614622
vt 0.000300 0.614020
vt 0.076715 0.614020
vt 0.076715 0.690435
vt 0.000300 0.690435
vt 0.231347 0.845669
vt 0.307761 0.845669
vt 0.307761 0.922083
vt 0.231347 0.922083
vt 0.539409 0.769254
vt 0.615824 0.769254
vt 0.615824 0.845669
vt 0.539409 0.845669
vt 0.615823 0.384176
vt 0.615823 0.460590
vt 0.539409 0.460590
vt 0.539409 0.384176
vt 0.230746 0.000300
vt 0.230746 0.305958
vt 0.154332 0.305958
vt 0.154332 0.000300
vt 0.923886 0.769254
vt 0.923886 0.845669
vt 0.847472 0.845669
vt 0.847472 0.769254
vt 0.077316 0.768051
vt 0.153730 0.768051
vt 0.153730 0.844466
vt 0.077316 0.844466
vt 0.462394 0.614622
vt 0.462394 0.538208
vt 0.538808 0.538208
vt 0.538808 0.614622
vt 0.616425 0.307160
vt 0.692839 0.307160
vt 0.692839 0.383575
vt 0.616425 0.383575
vt 0.385378 0.769254
vt 0.461792 0.769254
vt 0.461792 0.845669
vt 0.385378 0.845669
vt 0.231347 0.768653
vt 0.307762 0.768653
vt 0.307762 0.845068
vt 0.231347 0.845068
vt 0.846871 0.846270
vt 0.846871 0.922684
vt 0.770456 0.922684
vt 0.770456 0.846270
vt 0.616425 0.230747
vt 0.616425 0.154333
vt 0.692840 0.154333
vt 0.692840 0.230747
vt 0.616425 0.538208
vt 0.692840 0.538208
vt 0.692840 0.614622
vt 0.616425 0.614622
vt 0.770456 0.769254
vt 0.846871 0.769254
vt 0.846871 0.845669
vt 0.770456 0.845669
vt 0.231347 0.614021
vt 0.231347 0.537607
vt 0.307762 0.537607
vt 0.307762 0.614021
vt 0.923886 0.692239
vt 0.923886 0.768653
vt 0.847472 0.768653
vt 0.847472 0.692239
vt 0.231347 0.768052
vt 0.231347 0.691638
vt 0.307762 0.691638
vt 0.307762 0.768052
vt 0.077316 0.613419
vt 0.077316 0.537005
vt 0.153730 0.537005
vt 0.153730 0.613419
vt 0.385378 0.692239
vt 0.461792 0.692239
vt 0.461792 0.768653
vt 0.385378 0.768653
vt 0.770456 0.307160
vt 0.846870 0.307160
vt 0.846870 0.383575
vt 0.770456 0.383575
vt 0.000300 0.613419
vt 0.000300 0.537005
vt 0.076715 0.537005
vt 0.076715 0.613419
vt 0.230746 0.459388
vt 0.154332 0.459388
vt 0.154332 0.306559
vt 0.230746 0.306559
vt 0.385378 0.846269
vt 0.461793 0.846269
vt 0.461793 0.922684
vt 0.385378 0.922684
vt 0.693440 0.307160
vt 0.769855 0.307160
vt 0.769855 0.383575
vt 0.693440 0.383575
vt 0.769855 0.923285
vt 0.769855 0.999700
vt 0.693440 0.999700
vt 0.693440 0.923285
vt 0.000300 0.000300
vt 0.076715 0.000300
vt 0.076715 0.305958
vt 0.000300 0.305958
vt 0.153731 0.922082
vt 0.153731 0.998497
vt 0.077316 0.998497
vt 0.077316 0.922082
vt 0.384777 0.000300
vt 0.384777 0.153129
vt 0.308362 0.153129
vt 0.308362 0.000300
vt 0.462394 0.076715
vt 0.462394 0.000301
vt 0.538808 0.000301
vt 0.538808 0.076715
vt 0.538808 0.154333
vt 0.538808 0.230747
vt 0.462393 0.230747
vt 0.462393 0.154333
vt 0.692839 0.923285
vt 0.692839 0.999700
vt 0.616425 0.999700
vt 0.616425 0.923285
vt 0.538808 0.461192
vt 0.538808 0.537607
vt 0.462393 0.537607
vt 0.462393 0.461192
vt 0.538808 0.384176
vt 0.538808 0.460591
vt 0.462393 0.460591
vt 0.462393 0.384176
vt 0.538808 0.077317
vt 0.538808 0.153731
vt 0.462393 0.153731
vt 0.462393 0.077317
vt 0.693440 0.460590
vt 0.693440 0.384176
vt 0.769855 0.384176
vt 0.769855 0.460590
vt 0.770456 0.077317
vt 0.846870 0.077317
vt 0.846870 0.153731
vt 0.770456 0.153731
vt 0.461793 0.077316
vt 0.461793 0.153731
vt 0.385378 0.153731
vt 0.385378 0.077316
vt 0.461793 0.000300
vt 0.461793 0.076715
vt 0.385378 0.076715
vt 0.385378 0.000300
vt 0.307761 0.922684
vt 0.307761 0.999099
vt 0.231347 0.999099
vt 0.231347 0.922684
vt 0.616425 0.769254
vt 0.692840 0.769254
vt 0.692840 0.845669
vt 0.616425 0.845669
vt 0.769855 0.000301
vt 0.769855 0.076716
vt 0.693440 0.076716
vt 0.693440 0.000301
vt 0.616425 0.692239
vt 0.692840 0.692239
vt 0.692840 0.768653
vt 0.616425 0.768653
vt 0.615823 0.307160
vt 0.615823 0.383575
vt 0.539409 0.383575
vt 0.539409 0.307160
vt 0.308362 0.692239
vt 0.384777 0.692239
vt 0.384777 0.768653
vt 0.308362 0.768653
vt 0.384777 0.461192
vt 0.384777 0.537607
vt 0.308362 0.537607
vt 0.308362 0.461192
vt 0.384777 0.538208
vt 0.384777 0.614622
vt 0.308362 0.614622
vt 0.308362 0.538208
vt 0.770456 0.154332
vt 0.846871 0.154332
vt 0.846871 0.230747
vt 0.770456 0.230747
vt 0.770456 0.538208
vt 0.846871 0.538208
vt 0.846871 0.614622
vt 0.770456 0.614622
vt 0.847471 0.384176
vt 0.923886 0.384176
vt 0.923886 0.460590
vt 0.847471 0.460590
vt 0.000300 0.691036
vt 0.076715 0.691036
vt 0.076715 0.767450
vt 0.000300 0.767450
vt 0.770456 0.615223
vt 0.846871 0.615223
vt 0.846871 0.691638
vt 0.770456 0.691638
vt 0.308362 0.230145
vt 0.384777 0.230145
vt 0.384777 0.306559
vt 0.308362 0.306559
vt 0.384777 0.383575
vt 0.308363 0.383575
vt 0.308363 0.307160
vt 0.384777 0.307160
vt 0.616425 0.461191
vt 0.692839 0.461191
vt 0.692839 0.537606
vt 0.616425 0.537606
vt 0.769855 0.846270
vt 0.769855 0.922684
vt 0.693441 0.922684
vt 0.693441 0.846270
vt 0.692839 0.384176
vt 0.692839 0.460590
vt 0.616425 0.460590
vt 0.616425 0.384176
vt 0.616425 0.077317
vt 0.692839 0.077317
vt 0.692839 0.153731
vt 0.616425 0.153731
vt 0.539409 0.923285
vt 0.615824 0.923285
vt 0.615824 0.999700
vt 0.539409 0.999700
vt 0.153730 0.459989
vt 0.153730 0.536404
vt 0.077316 0.536404
vt 0.077316 0.459989
vt 0.923886 0.615223
vt 0.923886 0.691638
vt 0.847472 0.691638
vt 0.847472 0.615223
vt 0.538808 0.692239
vt 0.538808 0.768653
vt 0.462394 0.768653
vt 0.462394 0.692239
vt 0.770456 0.384176
vt 0.846870 0.384176
vt 0.846870 0.460590
vt 0.770456 0.460590
vt 0.461793 0.307160
vt 0.461793 0.383575
vt 0.385378 0.383575
vt 0.385378 0.307160
vt 0.616425 0.846270
vt 0.692839 0.846270
vt 0.692839 0.922684
vt 0.616425 0.922684
vt 0.308362 0.153730
vt 0.384777 0.153730
vt 0.770456 0.000301
vt 0.846870 0.000301
vt 0.846870 0.076716
vt 0.770456 0.076716
vt 0.000300 0.768051
vt 0.076715 0.768051
vt 0.076715 0.844466
vt 0.000300 0.844466
vt 0.307762 0.459990
vt 0.231347 0.459990
vt 0.231347 0.383575
vt 0.307762 0.383575
vt 0.385378 0.230747
vt 0.385378 0.154333
vt 0.461792 0.154333
vt 0.461792 0.230747
vt 0.693440 0.769254
vt 0.769855 0.769254
vt 0.769855 0.845669
vt 0.693440 0.845669
vt 0.000300 0.536404
vt 0.000300 0.459989
vt 0.076715 0.459989
vt 0.076715 0.536404
vt 0.231347 0.306559
vt 0.307762 0.306559
vt 0.307762 0.382974
vt 0.231347 0.382974
vt 0.154332 0.459989
vt 0.230746 0.459989
vt 0.230746 0.536404
vt 0.154332 0.536404
vt 0.077316 0.614020
vt 0.153730 0.614020
vt 0.153730 0.690435
vt 0.077316 0.690435
vt 0.539409 0.154332
vt 0.615824 0.154332
vt 0.615824 0.230747
vt 0.539409 0.230747
vt 0.462394 0.769254
vt 0.538808 0.769254
vt 0.538808 0.845668
vt 0.462394 0.845668
vt 0.693440 0.615223
vt 0.769855 0.615223
vt 0.769855 0.691638
vt 0.693440 0.691638
vt 0.923886 0.307160
vt 0.923886 0.383575
vt 0.847471 0.383575
vt 0.847471 0.307160
vt 0.539409 0.461191
vt 0.615823 0.461191
vt 0.615823 0.537606
vt 0.539409 0.537606
vt 0.847472 0.077317
vt 0.923886 0.077317
vt 0.923886 0.153731
vt 0.847472 0.153731
vt 0.539409 0.076716
vt 0.539409 0.000301
vt 0.615824 0.000301
vt 0.615824 0.076716
vt 0.538808 0.923285
vt 0.538808 0.999700
vt 0.462393 0.999700
vt 0.462393 0.923285
vt 0.539409 0.691638
vt 0.539409 0.615223
vt 0.615824 0.615223
vt 0.615824 0.691638
vt 0.461792 0.384176
vt 0.461792 0.460591
vt 0.385378 0.460591
vt 0.385378 0.384176
vn 0.0000 1.0000 0.0000
vn 0.0000 -0.0000 1.0000
vn -1.0000 -0.0000 0.0000
vn 0.0000 -1.0000 -0.0000
vn 0.0000 0.0000 -1.0000
vn 1.0000 -0.0000 0.0000
usemtl Lamp_Ground_Small
s off
f 14/1/1 15/2/1 96/3/1 8/4/1
f 100/5/1 41/6/1 24/7/1 59/8/1
f 55/9/2 53/10/2 113/11/2 114/12/2
f 116/13/2 56/14/2 19/15/2 14/16/2
f 111/17/3 84/18/3 86/19/3 60/20/3
f 73/21/4 58/22/4 55/23/4 31/24/4
f 64/25/1 116/26/1 14/27/1 94/28/1
f 103/29/4 81/30/4 79/31/4 102/32/4
f 25/33/5 120/34/5 96/35/5 5/36/5
f 4/37/5 89/38/5 27/39/5 2/40/5
f 113/41/3 12/42/3 105/43/3 112/44/3
f 71/45/5 72/46/5 109/47/5 90/48/5
f 88/49/2 12/50/2 54/51/2 83/52/2
f 7/53/3 89/54/3 50/55/3 52/56/3
f 25/57/4 48/58/4 49/59/4 66/60/4
f 56/61/1 34/62/1 20/63/1 19/64/1
f 28/65/6 106/66/6 104/67/6 44/68/6
f 37/69/4 36/70/4 23/71/4 74/72/4
f 122/73/3 62/74/3 99/75/3 121/76/3
f 64/77/4 45/78/4 95/79/4 94/80/4
f 109/81/3 74/82/3 23/83/3 22/84/3
f 24/85/3 97/86/3 35/87/3 59/88/3
f 73/89/6 97/90/6 35/91/6 58/92/6
f 101/93/4 42/94/4 100/95/4 41/96/4
f 40/97/4 39/98/4 35/99/4 97/100/4
f 25/101/6 67/102/6 123/103/6 48/104/6
f 96/105/6 120/106/6 51/107/6 8/108/6
f 96/109/3 92/110/3 9/111/3 8/112/3
f 109/113/5 38/114/5 37/115/5 74/116/5
f 88/117/6 114/118/6 46/119/6 106/120/6
f 14/121/3 53/122/3 91/123/3 94/124/3
f 80/125/6 81/126/6 32/127/6 118/128/6
f 35/129/1 97/130/1 117/131/1 116/132/1
f 71/133/6 31/134/6 55/135/6 114/136/6
f 20/137/3 15/138/3 14/139/3 19/140/3
f 87/141/6 29/142/6 110/143/6 85/144/6
f 123/145/1 67/146/1 124/147/1 1/148/1
f 105/149/5 106/150/5 28/151/5 11/152/5
f 27/153/6 89/154/6 50/155/6 26/156/6
f 70/157/6 90/158/6 88/159/6 83/160/6
f 50/161/1 89/162/1 4/163/1 107/164/1
f 100/165/2 59/166/2 35/167/2 39/168/2
f 110/169/6 30/170/6 71/171/6 90/172/6
f 117/173/5 97/174/5 73/175/5 31/176/5
f 70/177/4 83/178/4 54/179/4 69/180/4
f 68/181/3 115/182/3 113/183/3 53/184/3
f 13/185/3 69/186/3 54/187/3 12/188/3
f 46/189/2 112/190/2 105/191/2 106/192/2
f 119/193/1 65/194/1 16/195/1 62/196/1
f 123/197/2 1/198/2 49/199/2 48/200/2
f 77/201/5 30/202/5 110/203/5 60/204/5
f 104/205/2 10/206/2 82/207/2 44/208/2
f 64/209/6 65/210/6 119/211/6 45/212/6
f 126/213/1 76/214/1 75/215/1 125/216/1
f 57/217/2 114/218/2 88/219/2 22/220/2
f 79/221/3 18/222/3 98/223/3 17/224/3
f 61/225/1 128/226/1 127/227/1 21/228/1
f 25/229/3 5/230/3 6/231/3 48/232/3
f 57/233/1 72/234/1 71/235/1 114/236/1
f 117/237/1 118/238/1 98/239/1 15/240/1
f 24/241/5 41/242/5 40/243/5 97/244/5
f 98/245/5 118/246/5 78/247/5 93/248/5
f 110/249/1 29/250/1 111/251/1 60/252/1
f 34/253/6 56/254/6 116/255/6 117/256/6
f 77/257/3 60/258/3 13/259/3 115/260/3
f 119/261/2 62/262/2 95/263/2 45/264/2
f 101/265/6 76/266/6 126/267/6 42/268/6
f 68/269/5 31/270/5 71/271/5 115/272/5
f 37/273/6 38/274/6 108/275/6 36/276/6
f 34/277/5 117/278/5 15/279/5 20/280/5
f 71/281/1 30/282/1 77/283/1 115/284/1
f 78/285/4 31/286/4 68/287/4 93/288/4
f 75/289/3 41/290/3 100/291/3 125/292/3
f 87/293/4 85/294/4 86/295/4 84/296/4
f 110/297/4 90/298/4 13/299/4 60/300/4
f 88/301/4 106/302/4 105/303/4 12/304/4
f 108/305/1 38/306/1 109/307/1 22/308/1
f 35/309/2 116/310/2 55/311/2 58/312/2
f 96/313/5 15/314/5 68/315/5 92/316/5
f 113/317/2 52/318/2 50/319/2 12/320/2
f 109/321/6 72/322/6 57/323/6 22/324/6
f 64/325/2 94/326/2 91/327/2 47/328/2
f 109/329/4 22/330/4 88/331/4 90/332/4
f 111/333/5 29/334/5 87/335/5 84/336/5
f 119/337/4 43/338/4 99/339/4 62/340/4
f 51/341/2 48/342/2 6/343/2 8/344/2
f 55/345/4 47/346/4 91/347/4 53/348/4
f 28/349/4 44/350/4 82/351/4 11/352/4
f 127/353/5 128/354/5 103/355/5 102/356/5
f 122/357/5 63/358/5 119/359/5 62/360/5
f 127/361/3 102/362/3 79/363/3 21/364/3
f 16/365/5 65/366/5 64/367/5 94/368/5
f 126/369/2 125/370/2 100/371/2 42/372/2
f 33/373/2 121/374/2 99/375/2 43/376/2
f 13/377/4 12/378/4 50/379/4 89/380/4
f 79/381/5 81/382/5 80/383/5 18/384/5
f 16/385/3 94/386/3 95/387/3 62/388/3
f 27/389/4 26/390/4 3/391/4 2/392/4
f 108/393/2 22/394/2 23/395/2 36/396/2
f 119/397/6 63/398/6 33/399/6 43/400/6
f 80/401/4 118/402/4 98/403/4 18/404/4
f 4/405/3 2/406/3 3/407/3 107/408/3
f 96/409/4 8/410/4 6/411/4 5/412/4
f 98/413/3 93/414/3 68/415/3 15/416/3
f 14/417/2 8/418/2 9/419/2 53/420/2
f 103/421/6 128/422/6 61/423/6 81/424/6
f 33/373/1 63/425/1 122/426/1 121/374/1
f 55/427/6 116/428/6 64/429/6 47/430/6
f 50/431/2 107/432/2 3/433/2 26/434/2
f 68/435/4 53/436/4 9/437/4 92/438/4
f 46/439/1 114/440/1 113/441/1 112/442/1
f 61/443/2 21/444/2 79/445/2 81/446/2
f 32/447/1 81/448/1 79/449/1 17/450/1
f 113/451/1 115/452/1 7/453/1 52/454/1
f 78/455/6 118/456/6 117/457/6 31/458/6
f 124/459/5 67/460/5 25/461/5 66/462/5
f 32/463/2 17/464/2 98/465/2 118/466/2
f 75/467/5 76/468/5 101/469/5 41/470/5
f 110/471/2 60/472/2 86/473/2 85/474/2
f 40/475/6 41/476/6 100/477/6 39/478/6
f 13/479/5 90/480/5 70/481/5 69/482/5
f 105/483/3 11/484/3 82/485/3 10/486/3
f 104/487/1 106/488/1 105/489/1 10/490/1
f 124/491/3 66/492/3 49/493/3 1/494/3
f 51/495/1 120/496/1 25/497/1 48/498/1
f 7/499/5 115/500/5 13/501/5 89/502/5
